<?xml version="1.0" encoding="UTF-8" standalone="no"?>
<svg
   version="1.1"
   id="Layer_1"
   x="0px"
   y="0px"
   width="100%"
   viewBox="0 0 501 103"
   enable-background="new 0 0 501 103"
   xml:space="preserve"
   sodipodi:docname="laboratory.svg"
   inkscape:version="1.2.1 (9c6d41e410, 2022-07-14)"
   xmlns:inkscape="http://www.inkscape.org/namespaces/inkscape"
   xmlns:sodipodi="http://sodipodi.sourceforge.net/DTD/sodipodi-0.dtd"
   xmlns="http://www.w3.org/2000/svg"
   xmlns:svg="http://www.w3.org/2000/svg"><defs
   id="defs74" /><sodipodi:namedview
   id="namedview72"
   pagecolor="#ffffff"
   bordercolor="#000000"
   borderopacity="0.25"
   inkscape:showpageshadow="2"
   inkscape:pageopacity="0.0"
   inkscape:pagecheckerboard="0"
   inkscape:deskcolor="#d1d1d1"
   showgrid="false"
   inkscape:zoom="2.5329341"
   inkscape:cx="251.2896"
   inkscape:cy="51.126478"
   inkscape:window-width="2004"
   inkscape:window-height="1230"
   inkscape:window-x="1313"
   inkscape:window-y="593"
   inkscape:window-maximized="0"
   inkscape:current-layer="Layer_1" />

<path
   fill="#1AC0F9"
   opacity="1.000000"
   stroke="none"
   d=" M400.089783,51.028114   C400.089600,48.868645 400.102356,47.202808 400.087006,45.537224   C400.012970,37.503181 399.808319,37.279793 392.312347,36.223122   C398.029388,34.470684 403.746429,32.718250 409.908630,30.829363   C409.908630,33.869942 409.908630,36.474041 409.908630,39.970329   C411.983978,37.680809 413.227173,35.619865 415.046448,34.472034   C417.469208,32.943470 420.327240,31.209827 423.021210,31.171368   C431.625519,31.048527 440.240692,31.660755 448.850677,32.013950   C449.609558,32.045082 450.361023,32.257092 451.080536,32.379089   C451.049652,33.012177 451.141876,33.533077 451.003906,33.603596   C444.654785,36.849174 444.623444,36.855820 447.400818,44.052158   C449.905212,50.541130 452.482635,57.001907 455.517242,64.719780   C458.560547,56.120541 461.365021,48.634869 463.840576,41.041962   C465.404175,36.246204 461.612152,34.826748 458.231842,32.657463   C464.321869,32.657463 470.411896,32.657463 476.501923,32.657463   C467.252899,36.973282 466.443359,46.493256 462.974823,54.256092   C458.433502,64.419907 454.458008,74.844543 449.682678,84.892532   C447.124512,90.275314 443.602325,95.469833 437.275635,97.126129   C434.928955,97.740486 432.244415,97.064308 429.713959,96.976669   C429.900238,95.132362 429.601471,93.044769 430.378021,91.496544   C431.808746,88.644135 434.306396,88.197304 437.563782,88.855370   C439.510773,89.248711 442.017487,88.192078 443.900604,87.128563   C445.209778,86.389183 445.868591,84.516785 446.848999,83.173203   C449.804077,79.123352 450.196442,75.237610 447.918762,70.391022   C443.189789,60.328323 439.364410,49.843967 434.785889,39.705307   C433.733582,37.375092 431.140076,35.740852 428.555115,33.059444   C426.204346,39.362137 423.483551,41.912251 417.824524,39.438023   C415.001099,38.203571 410.549133,42.556332 410.272827,47.115185   C409.830353,54.415283 409.702728,61.798672 410.379578,69.059456   C410.559692,70.991508 414.156036,72.605103 416.250946,74.423111   C409.037964,74.423111 401.400024,74.423111 393.762054,74.423111   C401.783936,72.662064 399.970428,66.361115 400.078094,61.016369   C400.141815,57.852737 400.089722,54.686771 400.089783,51.028114  z"
   id="path41" />
<path
   fill="#18C0F9"
   opacity="1.000000"
   stroke="none"
   d=" M127.870758,7.326371   C127.867149,17.248081 127.867149,26.708885 127.867149,36.726536   C133.185638,31.960405 138.893173,29.735407 145.795624,31.624846   C157.367599,34.792503 163.312149,46.383213 160.153397,59.961128   C157.585617,70.998787 146.456558,78.204124 135.463058,75.717072   C133.269165,75.220749 130.838348,74.219414 129.307419,72.669823   C126.166595,69.490753 123.806435,69.848206 121.170639,73.081573   C120.410408,74.014153 119.135239,74.526962 117.482834,75.648514   C117.482834,68.850121 117.488060,62.844940 117.481789,56.839767   C117.467392,43.038292 117.443291,29.236830 117.432037,15.435353   C117.428383,10.956403 117.175385,6.785469 109.822876,10.494926   C109.977806,9.704892 110.132736,8.914857 110.287659,8.124823   C115.859451,6.425646 121.431236,4.726470 127.512154,2.872027   C127.653038,4.425278 127.763710,5.645370 127.870758,7.326371  M148.600677,61.779232   C149.887787,55.340401 150.251831,48.925964 147.434677,42.774212   C145.072098,37.615047 140.253754,35.012005 135.420288,36.023033   C130.678894,37.014805 127.409714,41.433475 127.322624,47.102360   C127.261497,51.081429 127.290222,55.062317 127.314674,59.042168   C127.360313,66.468819 130.794846,71.752266 136.223495,72.797302   C141.237228,73.762466 145.526901,70.110641 148.600677,61.779232  z"
   id="path43" />
<path
   fill="#16BFF9"
   opacity="1.000000"
   stroke="none"
   d=" M57.419380,61.328701   C58.609921,59.642712 59.569962,58.238430 60.530003,56.834152   C60.968960,57.028023 61.407917,57.221893 61.846870,57.415768   C61.983849,63.466778 59.420391,68.944733 57.338840,74.499794   C57.181217,74.920448 55.854134,75.066803 55.071259,75.065086   C38.769428,75.029366 22.467674,74.956009 6.166048,74.864967   C5.918461,74.863586 5.672641,74.545822 5.089873,74.143890   C5.525618,73.679634 5.888185,72.939873 6.289804,72.918022   C13.259158,72.538902 13.763693,67.590973 13.779548,62.359272   C13.824423,47.552719 13.814734,32.746014 13.840382,17.939390   C13.849084,12.915642 13.299071,8.400618 6.542605,8.628705   C5.983448,8.647581 5.393943,7.767507 3.844765,6.522579   C14.551206,6.522579 24.089231,6.522579 34.989262,6.522579   C33.191521,7.749992 32.388443,8.770098 31.596680,8.761387   C26.882696,8.709524 25.661936,11.434534 25.670885,15.504580   C25.706701,31.791779 25.548000,48.080765 25.749535,64.365524   C25.822962,70.298622 27.833143,71.801216 33.818932,72.002647   C43.302059,72.321762 51.610703,70.049202 57.419380,61.328701  z"
   id="path45" />
<path
   fill="#19C0F9"
   opacity="1.000000"
   stroke="none"
   d=" M341.225708,54.841461   C341.637207,43.301861 347.263672,34.957951 356.286804,32.077755   C365.417603,29.163191 375.518890,31.992699 381.085602,39.024235   C387.062225,46.573563 387.789917,57.475330 382.862915,65.649979   C378.199921,73.386597 368.253632,77.620644 359.156616,75.741570   C348.816315,73.605682 342.898743,66.848282 341.225708,54.841461  M373.917023,62.186401   C375.545837,54.212921 375.952484,46.144428 371.656525,39.003574   C370.168732,36.530548 366.207336,34.298141 363.349243,34.265331   C360.750092,34.235497 356.918549,36.741810 355.707489,39.167316   C351.034485,48.526257 351.032715,58.446827 355.435150,67.942421   C358.618866,74.809433 366.860046,75.107735 371.053467,68.812462   C372.225342,67.053177 372.857117,64.934135 373.917023,62.186401  z"
   id="path47" />
<path
   fill="#19C0F9"
   opacity="1.000000"
   stroke="none"
   d=" M193.703674,75.968781   C182.984940,76.294670 175.210175,72.298058 170.962616,62.638214   C167.262329,54.222961 169.388901,43.848854 175.918045,37.311565   C182.399826,30.821699 192.552765,29.081566 201.283524,32.964134   C209.894974,36.793648 214.729752,45.664883 213.981934,56.264229   C213.369476,64.944656 207.230850,72.404633 198.499527,75.001923   C197.079819,75.424240 195.596359,75.632263 193.703674,75.968781  M199.422180,38.172394   C193.513626,31.428495 186.092484,32.491974 182.775894,40.751556   C179.500519,48.908516 179.630829,57.289543 182.329407,65.568535   C183.678528,69.707520 186.135544,72.889809 191.102829,73.127800   C196.372955,73.380295 199.150253,70.107864 200.672058,65.899086   C203.946609,56.842842 204.032455,47.718914 199.422180,38.172394  z"
   id="path49" />
<path
   fill="#19C0F9"
   opacity="1.000000"
   stroke="none"
   d=" M92.384201,42.057838   C92.262939,40.791759 92.172142,39.963051 92.040306,39.140934   C91.536957,36.002213 90.103851,33.876106 86.535904,33.905914   C82.798508,33.937141 80.346230,35.679066 80.147919,39.430172   C79.906265,44.001007 76.953217,44.895954 73.391983,44.925175   C72.059433,44.936108 69.954636,44.366089 69.567017,43.470280   C69.023415,42.213997 69.461815,40.287949 70.033119,38.871395   C70.491859,37.733936 71.600082,36.517479 72.718948,36.047417   C77.088882,34.211487 81.477242,31.646345 86.041374,31.193666   C98.677765,29.940374 102.190666,33.560741 102.176781,46.175457   C102.170181,52.171776 102.062790,58.168289 102.092834,64.164253   C102.127831,71.148453 103.048714,72.061516 109.400070,71.784943   C105.935692,76.616547 98.756233,76.631516 93.728813,72.580208   C88.249710,73.837204 83.561920,75.514938 78.778336,75.858376   C72.730873,76.292564 68.155907,72.503731 67.309570,67.615013   C66.424545,62.502777 69.585670,57.326717 75.191132,55.200233   C78.593109,53.909668 82.159882,53.060165 85.623856,51.924736   C90.147079,50.442104 93.319069,47.924137 92.384201,42.057838  M86.105370,54.479679   C84.038689,55.796257 81.579437,56.756805 79.991615,58.507660   C77.170944,61.617947 76.655937,65.772720 79.182487,69.011551   C80.556427,70.772812 84.010979,72.012779 86.297539,71.716469   C90.280190,71.200363 92.368202,67.878960 92.564621,63.842033   C92.752838,59.973732 92.605263,56.089096 92.605263,51.833488   C90.132164,52.823917 88.462967,53.492397 86.105370,54.479679  z"
   id="path51" />
<path
   fill="#19C0F9"
   opacity="1.000000"
   stroke="none"
   d=" M284.447632,36.939362   C281.951752,35.738049 279.404236,33.927525 277.397095,34.402168   C275.638000,34.818161 273.866150,37.601330 273.198181,39.690060   C271.933929,43.643723 267.988495,46.352108 264.197052,44.822742   C260.816986,43.459324 261.312347,40.493572 263.173401,38.765747   C266.016418,36.126266 269.387268,33.780556 272.941956,32.270367   C275.723083,31.088818 279.124359,31.041306 282.248108,31.052305   C292.032349,31.086748 295.146210,34.271935 295.171539,43.907547   C295.188629,50.404449 295.084015,56.901611 295.087006,63.398628   C295.090576,71.057419 295.550262,71.559875 302.505981,71.981438   C298.282379,76.607094 291.950623,76.520958 287.019318,72.842422   C280.711700,74.043182 275.656403,75.584167 270.541504,75.817215   C265.381378,76.052315 261.222748,72.199913 260.343536,67.868942   C259.376678,63.106213 262.117676,57.972885 267.082825,55.771675   C269.644043,54.636200 272.372406,53.848736 275.069366,53.053673   C285.491455,49.981270 286.653381,48.105782 284.447632,36.939362  M272.497070,69.890892   C277.787231,74.015419 284.161469,71.974205 285.183380,65.412560   C285.848846,61.139614 285.308746,56.678913 285.308746,51.968658   C282.471497,53.120838 280.031494,54.036797 277.653290,55.091896   C271.215668,57.947937 269.484039,62.351601 272.497070,69.890892  z"
   id="path53" />
<path
   fill="#1CC0F9"
   opacity="1.000000"
   stroke="none"
   d=" M311.086792,56.947807   C311.086975,49.835541 311.086975,43.214451 311.086975,36.328033   C308.827026,36.085964 306.651550,35.852943 304.524353,35.625092   C310.174408,30.819635 315.554657,26.243652 321.446899,21.232227   C321.610260,24.482244 321.782410,27.906565 321.976196,31.762009   C326.205505,31.762009 330.466309,31.762009 336.026703,31.762009   C332.087708,38.835114 325.701019,33.957329 321.303162,36.611263   C321.303162,45.513741 320.886597,54.648930 321.436676,63.725533   C321.866699,70.821312 326.294830,72.857033 333.038757,69.997688   C333.848541,69.654343 334.734772,69.491356 336.325653,70.252052   C335.177429,71.375244 334.195099,72.779472 332.851868,73.572258   C327.452118,76.759293 321.765076,77.122429 316.226776,74.092331   C311.242096,71.365143 311.179077,66.292992 310.994202,61.430099   C310.943756,60.102818 311.051483,58.769520 311.086792,56.947807  z"
   id="path55" />
<path
   fill="#18C0F9"
   opacity="1.000000"
   stroke="none"
   d=" M254.484222,32.097389   C255.852005,38.583332 253.122879,41.345661 247.351913,39.833694   C243.168365,38.737617 238.888046,41.343987 238.431061,46.551476   C237.764633,54.145741 237.809128,61.863522 238.405975,69.461449   C238.542908,71.204483 242.161346,72.674042 244.313705,74.377205   C236.996048,74.377205 229.388885,74.377205 221.781708,74.377205   C230.314301,72.465096 227.867828,65.658058 228.056305,60.146008   C228.232513,54.992340 228.144791,49.827187 228.078995,44.668293   C227.986847,37.444393 227.481033,36.981522 220.811554,37.466976   C220.685425,37.064556 220.559296,36.662136 220.433167,36.259716   C226.073090,34.492050 231.713013,32.724384 237.789749,30.819807   C237.789749,33.819725 237.789749,36.406086 237.789749,39.925037   C242.782974,35.055470 246.293243,28.548780 254.484222,32.097389  z"
   id="path57" />
<path
   fill="#1AC1F9"
   opacity="1.000000"
   stroke="none"
   d=" M482.171204,69.861511   C482.505005,65.628212 484.675415,63.331200 488.455750,63.061810   C491.892487,62.816902 494.636017,64.888138 494.686005,68.112282   C494.722412,70.463562 493.238098,73.577606 491.393463,75.057571   C488.048035,77.741684 484.485321,75.609024 482.171204,69.861511  z"
   id="path59" />





</svg>
